# xmcd CD database file
#
# Track frame offsets:
#	150
#	1734
#	24547
#	44097
#	63570
#	82761
#	104249
#	128567
#	149299
#	166258
#	183906
#	201711
#
# Disc length: 2700 seconds
#
# Revision: 0
# Processed by: cddbd v1.5.2PL0 Copyright (c) Steve Scherf et al.
# Submitted via: CDex 1.51
#
DISCID=a50a8a0c
DTITLE=The Alex Dixon Band - Rising From The Bushes
DYEAR=2009
DGENRE=Blues
TTITLE0=Willie Dixon - Intro
TTITLE1=Fantacy
TTITLE2=Lose Control
TTITLE3=Down In The Bottom
TTITLE4=Still In Love With You
TTITLE5=Paint You A Picture
TTITLE6=Spoonful
TTITLE7=My  Suspicious Mind
TTITLE8=These Are The Times
TTITLE9=Find A Way To Live
TTITLE10=Everything's Gonna Be Alright
TTITLE11=Willie Dixon - Outro
EXTD=YEAR: 2009
EXTT0=
EXTT1=
EXTT2=
EXTT3=
EXTT4=
EXTT5=
EXTT6=
EXTT7=
EXTT8=
EXTT9=
EXTT10=
EXTT11=
PLAYORDER=
